<?xml version="1.0" encoding="UTF-8" standalone="no"?>
<!DOCTYPE svg PUBLIC "-//W3C//DTD SVG 1.1//EN" "http://www.w3.org/Graphics/SVG/1.1/DTD/svg11.dtd">
<svg width="100%" height="100%" viewBox="0 0 512 512" version="1.1" xmlns="http://www.w3.org/2000/svg" xmlns:xlink="http://www.w3.org/1999/xlink" xml:space="preserve" xmlns:serif="http://www.serif.com/" style="fill-rule:evenodd;clip-rule:evenodd;stroke-linejoin:round;stroke-miterlimit:2;">
    <path d="M476,240L472,240L472,132C471.983,116.646 459.354,104.017 444,104L68,104C52.646,104.017 40.017,116.646 40,132L40,240L36,240C20.646,240.017 8.017,252.646 8,268L8,400C8,404.389 11.611,408 16,408L40,408C43.435,408 46.504,405.788 47.59,402.53L53.77,384L458.23,384L464.41,402.53C465.496,405.788 468.565,408 472,408L496,408C500.389,408 504,404.389 504,400L504,268C503.983,252.646 491.354,240.017 476,240ZM56,132C56.005,125.419 61.419,120.005 68,120L444,120C450.581,120.005 455.995,125.419 456,132L456,240L416,240L416,228C415.983,212.646 403.354,200.017 388,200L300,200C284.646,200.017 272.017,212.646 272,228L272,240L240,240L240,228C239.983,212.646 227.354,200.017 212,200L124,200C108.646,200.017 96.017,212.646 96,228L96,240L56,240L56,132ZM400,228L400,240L288,240L288,228C288.005,221.419 293.419,216.005 300,216L388,216C394.581,216.005 399.995,221.419 400,228ZM224,228L224,240L112,240L112,228C112.005,221.419 117.419,216.005 124,216L212,216C218.581,216.005 223.995,221.419 224,228ZM34.23,392L24,392L24,384L36.9,384L34.23,392ZM488,392L477.77,392L475.1,384L488,384L488,392ZM488,368L24,368L24,352L488,352L488,368ZM488,336L24,336L24,268C24.005,261.419 29.419,256.005 36,256L476,256C482.581,256.005 487.995,261.419 488,268L488,336Z" style="fill-rule:nonzero;"/>
</svg>
