<?xml version="1.0" encoding="UTF-8" standalone="no"?>
<!DOCTYPE svg PUBLIC "-//W3C//DTD SVG 1.1//EN" "http://www.w3.org/Graphics/SVG/1.1/DTD/svg11.dtd">
<svg width="100%" height="100%" viewBox="0 0 512 512" version="1.1" xmlns="http://www.w3.org/2000/svg" xmlns:xlink="http://www.w3.org/1999/xlink" xml:space="preserve" xmlns:serif="http://www.serif.com/" style="fill-rule:evenodd;clip-rule:evenodd;stroke-linejoin:round;stroke-miterlimit:2;">
    <path d="M441.868,240L437.868,240L437.868,132C437.851,116.646 425.222,104.017 409.868,104L101.755,104C86.401,104.017 73.772,116.646 73.755,132L73.755,240L69.755,240C54.401,240.017 41.772,252.646 41.755,268L41.755,400C41.755,404.389 45.366,408 49.755,408L73.755,408C77.19,408 80.259,405.788 81.345,402.53L87.525,384L424.098,384L430.278,402.53C431.364,405.788 434.433,408 437.868,408L461.868,408C466.257,408 469.868,404.389 469.868,400L469.868,268C469.851,252.646 457.222,240.017 441.868,240ZM89.755,132C89.76,125.419 95.174,120.005 101.755,120L409.868,120C416.449,120.005 421.862,125.419 421.868,132L421.868,240L416,240L416,228C415.983,212.646 403.354,200.017 388,200L300,200C284.646,200.017 272.017,212.646 272,228L272,240L240,240L240,228C239.983,212.646 227.354,200.017 212,200L124,200C108.646,200.017 96.017,212.646 96,228L96,240L89.755,240L89.755,132ZM400,228L400,240L288,240L288,228C288.005,221.419 293.419,216.005 300,216L388,216C394.581,216.005 399.995,221.419 400,228ZM224,228L224,240L112,240L112,228C112.005,221.419 117.419,216.005 124,216L212,216C218.581,216.005 223.995,221.419 224,228ZM67.985,392L57.755,392L57.755,384L70.655,384L67.985,392ZM453.868,392L443.638,392L440.968,384L453.868,384L453.868,392ZM453.868,368L57.755,368L57.755,352L453.868,352L453.868,368ZM453.868,336L57.755,336L57.755,268C57.76,261.419 63.174,256.005 69.755,256L441.868,256C448.449,256.005 453.862,261.419 453.868,268L453.868,336Z" style="fill-rule:nonzero;"/>
</svg>
