<?xml version="1.0" encoding="UTF-8" standalone="no"?>
<!DOCTYPE svg PUBLIC "-//W3C//DTD SVG 1.1//EN" "http://www.w3.org/Graphics/SVG/1.1/DTD/svg11.dtd">
<svg width="100%" height="100%" viewBox="0 0 800 600" version="1.1" xmlns="http://www.w3.org/2000/svg" xmlns:xlink="http://www.w3.org/1999/xlink" xml:space="preserve" xmlns:serif="http://www.serif.com/" style="fill-rule:evenodd;clip-rule:evenodd;stroke-linejoin:round;stroke-miterlimit:2;">
    <g transform="matrix(0.901327,0,0,0.708788,38.1934,16.397)">
        <path d="M769.002,0C760.2,0 753.066,7.136 753.066,15.936L753.066,86.066L271.72,86.066L271.72,82.156C271.72,43.139 239.977,11.398 200.961,11.398L155.691,11.398C116.673,11.398 84.931,43.141 84.931,82.156L84.931,86.066L46.934,86.066L46.934,15.936C46.934,7.136 39.8,0 30.998,0C22.195,0 15.061,7.136 15.061,15.936L15.061,784.064C15.061,792.864 22.195,800 30.997,800C39.798,800 46.933,792.864 46.933,784.064L46.933,640.781L753.066,640.781L753.066,784.064C753.066,792.864 760.2,800 769.002,800C777.803,800 784.938,792.864 784.938,784.064L784.938,15.936C784.939,7.136 777.805,0 769.002,0ZM753.066,117.937L753.066,219.464L269.573,219.464L371.1,117.937L753.066,117.937ZM116.803,82.156C116.803,60.714 134.248,43.27 155.691,43.27L200.959,43.27C222.403,43.27 239.847,60.714 239.847,82.156L239.847,86.066L116.803,86.066L116.803,82.156ZM46.934,117.938L371.1,117.938L269.573,219.464L46.934,219.464L46.934,117.938ZM46.934,251.337L753.067,251.337L753.067,475.508L271.72,475.508L271.72,471.6C271.72,432.583 239.977,400.841 200.961,400.841L155.691,400.841C116.673,400.841 84.931,432.584 84.931,471.6L84.931,475.508L46.934,475.508L46.934,251.337ZM239.847,471.6L239.847,475.508L116.803,475.508L116.803,471.6C116.803,450.158 134.248,432.713 155.691,432.713L200.959,432.713C222.403,432.712 239.847,450.158 239.847,471.6ZM46.934,608.908L46.934,507.38L371.102,507.38L269.573,608.908L46.934,608.908ZM371.102,507.38L753.069,507.38L753.069,608.908L269.573,608.908L371.102,507.38" style="fill-rule:nonzero;"/>
    </g>
</svg>
