<?xml version="1.0" encoding="utf-8"?>
<!-- Generator: Adobe Illustrator 23.0.2, SVG Export Plug-In . SVG Version: 6.00 Build 0)  -->
<svg version="1.1" id="Layer_1" xmlns="http://www.w3.org/2000/svg" xmlns:xlink="http://www.w3.org/1999/xlink" x="0px" y="0px"
	 viewBox="0 0 60.9173 111.3402" enable-background="new 0 0 60.9173 111.3402" xml:space="preserve">
<g>
	<path d="M15.5275,32.2696l-0.0034-0.008c-1.4746,0.6289-14.439,7.0659-15.521,38.9849c-0.0981,2.8975,2.1714,5.3267,5.0693,5.4248
		c0.0605,0.002,0.1206,0.0029,0.1812,0.0029c2.8169,0,5.1475-2.2349,5.2437-5.0723c0.3254-9.5992,1.7869-16.2111,3.4614-20.7253
		l0.0001,52.9636c0,4.1421,3.3579,7.5,7.5,7.5s7.5-3.3579,7.5-7.5V79.8406h3v23.9996c0,4.1421,3.3579,7.5,7.5,7.5
		s7.5-3.3579,7.5-7.5l-0.0001-53.0476c1.6663,4.5093,3.134,11.1445,3.4615,20.8093c0.0962,2.8374,2.4263,5.0723,5.2437,5.0723
		c0.0601,0,0.1206-0.001,0.1812-0.0029c2.8979-0.0981,5.1675-2.5273,5.0693-5.4248c-1.082-31.9189-14.0464-38.356-15.521-38.9849
		c-0.007-0.003-0.0143-0.0037-0.0213-0.0067c-0.6736-0.5158-1.5044-0.835-2.4133-0.835h-1.9186
		c-3.0416,2.0031-6.675,3.1778-10.5814,3.1778S22.9188,33.423,19.8773,31.42h-1.9188C17.0414,31.42,16.2042,31.7453,15.5275,32.2696
		z"/>
	<ellipse transform="matrix(0.9732 -0.2298 0.2298 0.9732 -2.7002 7.4073)" cx="30.4587" cy="15.299" rx="15.299" ry="15.299"/>
</g>
</svg>
