<?xml version="1.0" encoding="UTF-8" standalone="no"?>
<!DOCTYPE svg PUBLIC "-//W3C//DTD SVG 1.1//EN" "http://www.w3.org/Graphics/SVG/1.1/DTD/svg11.dtd">
<svg width="100%" height="100%" viewBox="0 0 512 512" version="1.1" xmlns="http://www.w3.org/2000/svg" xmlns:xlink="http://www.w3.org/1999/xlink" xml:space="preserve" xmlns:serif="http://www.serif.com/" style="fill-rule:evenodd;clip-rule:evenodd;stroke-linejoin:round;stroke-miterlimit:2;">
    <g transform="matrix(1,0,0,1,88.311,0)">
        <path d="M309.355,240L305.355,240L305.355,132C305.338,116.646 292.709,104.017 277.355,104L68,104C52.646,104.017 40.017,116.646 40,132L40,240L36,240C20.646,240.017 8.017,252.646 8,268L8,400C8,404.389 11.611,408 16,408L40,408C43.435,408 46.504,405.788 47.59,402.53L53.77,384L291.585,384L297.765,402.53C298.852,405.788 301.921,408 305.355,408L329.355,408C333.744,408 337.355,404.389 337.355,400L337.355,268C337.338,252.646 324.709,240.017 309.355,240ZM56,132C56.005,125.419 61.419,120.005 68,120L277.355,120C283.936,120.005 289.35,125.419 289.355,132L289.355,240L240,240L240,228C239.983,212.646 227.354,200.017 212,200L124,200C108.646,200.017 96.017,212.646 96,228L96,240L56,240L56,132ZM224,228L224,240L112,240L112,228C112.005,221.419 117.419,216.005 124,216L212,216C218.581,216.005 223.995,221.419 224,228ZM34.23,392L24,392L24,384L36.9,384L34.23,392ZM321.355,392L311.125,392L308.455,384L321.355,384L321.355,392ZM321.355,368L24,368L24,352L321.355,352L321.355,368ZM321.355,336L24,336L24,268C24.005,261.419 29.419,256.005 36,256L309.355,256C315.936,256.005 321.35,261.419 321.355,268L321.355,336Z" style="fill-rule:nonzero;"/>
    </g>
</svg>
