<?xml version="1.0" encoding="UTF-8" standalone="no"?>
<!DOCTYPE svg PUBLIC "-//W3C//DTD SVG 1.1//EN" "http://www.w3.org/Graphics/SVG/1.1/DTD/svg11.dtd">
<svg width="100%" height="100%" viewBox="0 0 801 296" version="1.1" xmlns="http://www.w3.org/2000/svg" xmlns:xlink="http://www.w3.org/1999/xlink" xml:space="preserve" xmlns:serif="http://www.serif.com/" style="fill-rule:evenodd;clip-rule:evenodd;stroke-linejoin:round;stroke-miterlimit:2;">
    <g transform="matrix(0.839864,0,0,0.918699,62.6912,-203.607)">
        <path d="M800,257.94C800,244.494 789.061,233.556 775.616,233.556L24.384,233.556C10.939,233.556 0,244.496 0,257.94L0,500.913L8.749,500.913L8.749,529.191L38.006,529.191L49.554,514.546L750.444,514.546L761.994,529.191L791.253,529.191L791.253,500.913L800.002,500.913L800.002,257.94L800,257.94ZM787.899,257.94L787.899,488.812L742.876,488.812L742.876,245.657L775.615,245.657C782.389,245.657 787.899,251.169 787.899,257.94ZM129.224,404.507L670.778,404.507L715.546,432.203L84.455,432.203L129.224,404.507ZM69.225,444.306L730.775,444.306L730.775,488.813L69.225,488.813L69.225,444.306ZM730.775,245.657L730.775,427.397L678.548,395.085L678.548,245.657L730.775,245.657ZM666.447,245.657L666.447,392.406L133.553,392.406L133.553,245.657L666.447,245.657ZM121.452,395.085L69.225,427.397L69.225,245.657L121.452,245.657L121.452,395.085ZM12.101,257.94C12.101,251.167 17.612,245.657 24.384,245.657L57.122,245.657L57.122,488.813L12.101,488.813L12.101,257.94ZM28.303,517.092L20.85,517.092L20.85,500.914L40.191,500.914L28.303,517.092ZM49.554,514.546L52.588,500.914L747.412,500.914L750.444,514.546L49.554,514.546ZM779.152,517.092L771.697,517.092L759.809,500.914L779.15,500.914L779.15,517.092L779.152,517.092Z" style="fill-rule:nonzero;"/>
    </g>
</svg>
